<svg xmlns="http://www.w3.org/2000/svg" viewBox="0 0 512 512"><path d="M411.5,132.94V430c0,27.61-22.39,50-50,50H150.5c-27.61,0-50-22.39-50-50V132.94c0-27.61,22.39-50,50-50h9.54v28.44c0,19.88,16.12,36,36,36h119.92c19.88,0,36-16.12,36-36v-28.44h9.54c27.61,0,50,22.39,50,50Zm-229.82-23.01v-24.02c0-8.84,7.16-16,16-16h18.22c1.18-21.13,18.68-37.9,40.11-37.9s38.93,16.77,40.11,37.9h18.22c8.84,0,16,7.16,16,16v24.02c0,8.84-7.16,16-16,16h-116.66c-8.84,0-16-7.16-16-16Zm58.15-38.62c0,8.93,7.24,16.17,16.17,16.17s16.17-7.24,16.17-16.17-7.24-16.17-16.17-16.17-16.17,7.24-16.17,16.17Z"/></svg>