<svg xmlns="http://www.w3.org/2000/svg" viewBox="0 0 512 512" width="512" height="512"><path d="M376,32H88c-4.42,0-8,3.58-8,8V472c0,4.42,3.58,8,8,8H376c30.93,0,56-25.07,56-56V88c0-30.93-25.07-56-56-56Zm-120,123.04c23.27,0,42.14,21.79,42.14,48.68s-18.87,48.68-42.14,48.68-42.14-21.79-42.14-48.68,18.87-48.68,42.14-48.68Zm96,160.49v19.83c0,11.95-9.69,21.63-21.63,21.63H181.63c-11.95,0-21.63-9.69-21.63-21.63v-19.83c0-.16,.01-.32,.01-.48,0-.14-.01-.28-.01-.42,0-23.4,42.98-42.37,96-42.37s96,18.97,96,42.37c0,.14-.01,.28-.01,.42,0,.16,.01,.32,.01,.48Z"/></svg>