<svg xmlns="http://www.w3.org/2000/svg" viewBox="0 0 512 512"><path d="M436.34,122.36c-12.94-12.86-25.88-25.72-38.82-38.57l-45.75-46.12c-3.6-3.63-8.5-5.67-13.62-5.67H189.77c-15.89,0-28.77,12.88-28.77,28.77V361.23c0,15.89,12.88,28.77,28.77,28.77h223.46c15.89,0,28.77-12.88,28.77-28.77V135.97c0-5.11-2.04-10-5.66-13.6Zm-26.11,14.64h-62c-6.17,0-11.22-5.05-11.22-11.22V63.77c0-3.71,2.15-4.6,4.78-1.99,11.46,11.37,22.92,22.75,34.37,34.12,12.02,12.11,24.04,24.21,36.06,36.32,2.61,2.63,1.72,4.78-1.99,4.78Z"/><path d="M346,423H178.07c-28.21,0-51.07-22.87-51.07-51.07V126c0-2.21-1.79-4-4-4h-24.71c-15.62,0-28.29,12.67-28.29,28.29V451.71c0,15.62,12.67,28.29,28.29,28.29h223.42c15.62,0,28.29-12.67,28.29-28.29v-24.71c0-2.21-1.79-4-4-4Z"/></svg>