<svg xmlns="http://www.w3.org/2000/svg" viewBox="0 0 512 512"><path d="M439.27,232.24h40.73v173.09c0,16.87-13.68,30.55-30.55,30.55H130.42c-16.87,0-30.55-13.68-30.55-30.55v-10.18H408.73c16.87,0,30.55-13.68,30.55-30.55V232.24Zm10.18-88.24h-10.18v44.12h40.73v-13.58c0-16.87-13.68-30.55-30.55-30.55Zm-37.33-23.76H32v-8.12c0-19.88,16.12-36,36-36H376.12c19.88,0,36,16.12,36,36v8.12Zm0,44.12v173.09c0,16.87-13.68,30.55-30.55,30.55H62.55c-16.87,0-30.55-13.68-30.55-30.55V164.36H412.12Zm-240.97,25.45c0-2.81-2.28-5.09-5.09-5.09H59.15c-2.81,0-5.09,2.28-5.09,5.09v5.09c0,2.81,2.28,5.09,5.09,5.09h106.91c2.81,0,5.09-2.28,5.09-5.09v-5.09Z"/></svg>