<svg xmlns="http://www.w3.org/2000/svg" viewBox="0 0 512 512"><path d="M461.25,212.73l-34.97-6.06c-3.54-12.05-8.34-23.58-14.25-34.41l20.87-28.98c7.4-7.32,7.42-19.31,.04-26.76l-35.63-36c-7.38-7.46-19.36-7.56-26.76-.24l-29.86,21.04c-10.53-5.69-21.71-10.34-33.39-13.84l-5.9-36.27c.05-10.41-8.41-18.9-18.9-18.95l-50.66-.26c-10.49-.05-19.04,8.34-19.09,18.75l-6.27,36.21c-11.72,3.38-22.93,7.92-33.51,13.5l-29.66-21.36c-7.32-7.4-19.31-7.42-26.76-.04l-36,35.63c-7.46,7.38-7.56,19.36-.24,26.76l20.59,29.22c-6.03,10.77-10.95,22.23-14.61,34.24l-35.04,5.7c-10.41-.05-18.9,8.41-18.95,18.9l-.26,50.66c-.05,10.49,8.34,19.04,18.75,19.09l34.97,6.06c3.54,12.05,8.34,23.58,14.25,34.41l-20.87,28.98c-7.4,7.32-7.42,19.31-.04,26.76l35.63,36c7.38,7.46,19.36,7.56,26.76,.24l29.86-21.04c10.53,5.69,21.71,10.34,33.39,13.84l5.9,36.27c-.05,10.41,8.41,18.9,18.9,18.95l50.66,.26c10.49,.05,19.04-8.34,19.09-18.75l6.27-36.21c11.72-3.38,22.93-7.92,33.51-13.5l29.66,21.36c7.32,7.4,19.31,7.42,26.76,.04l36-35.63c7.46-7.38,7.56-19.36,.24-26.76l-20.59-29.22c6.03-10.77,10.95-22.23,14.61-34.24l35.04-5.7c10.41,.05,18.9-8.41,18.95-18.9l.26-50.66c.05-10.49-8.34-19.04-18.75-19.09Zm-205.25,131.27c-48.97,0-88.67-39.4-88.67-88s39.7-88,88.67-88,88.67,39.4,88.67,88-39.7,88-88.67,88Z"/></svg>
