<svg xmlns="http://www.w3.org/2000/svg" viewBox="0 0 512 512" width="512" height="512"><path d="M188,153.22c0-34.9,25.89-64.86,60.57-68.77,41.3-4.65,76.43,27.57,76.43,67.82v25.34h52v-24.13c0-62.06-46.67-114.86-108.43-120.89-71.84-7.01-132.57,49.39-132.57,119.67v25.34h52v-24.39Z"/><path d="M384,200H128c-26.51,0-48,21.49-48,48v184c0,26.51,21.49,48,48,48H384c26.51,0,48-21.49,48-48V248c0-26.51-21.49-48-48-48Zm-220,177c-15.46,0-28-12.54-28-28s12.54-28,28-28,28,12.54,28,28-12.54,28-28,28Zm93,0c-15.46,0-28-12.54-28-28s12.54-28,28-28,28,12.54,28,28-12.54,28-28,28Zm92,0c-15.46,0-28-12.54-28-28s12.54-28,28-28,28,12.54,28,28-12.54,28-28,28Z"/></svg>