<svg xmlns="http://www.w3.org/2000/svg" viewBox="0 0 512 512"><path d="M60,33.42c-12.86,3.59-23.36,14.17-26.77,27.12-.96,3.67-1.22,33.6-1.22,176.84,0,188.74-.26,177.71,4.99,186.81,3.24,5.42,9.71,11.72,14.79,14.26,2.36,1.14,30.62,10.94,62.91,21.7l58.62,19.6h7.87c9.62,0,15.05-1.75,22.31-7.09,5.86-4.29,10.59-10.76,13.12-18.11,1.4-4.02,1.75-7.17,1.75-17.67v-12.69h30.89c35.17,0,38.67-.44,50.49-6.21,14.17-6.91,25.64-21.35,29.22-36.66,2.01-8.49,2.01-90.39,.09-95.2-5.86-14-26.16-14.87-33.51-1.49-1.31,2.27-1.57,7.79-1.92,45.5l-.44,42.87-2.19,3.94c-1.22,2.1-3.94,5.07-5.95,6.56l-3.85,2.62-31.41,.26-31.41,.26-.17-144.64-.26-144.64-2.8-5.86c-4.55-9.62-10.67-15.31-21.17-19.69l-4.9-2.01,46.11,.26,46.02,.17,3.85,2.62c2.01,1.49,4.72,4.46,5.95,6.56l2.19,3.94,.44,33.69c.44,32.99,.44,33.77,2.36,36.84,1.14,1.75,3.67,4.29,5.69,5.69,3.24,2.27,4.37,2.54,10.32,2.54s7.09-.26,10.15-2.36c1.84-1.31,4.37-3.85,5.6-5.69l2.19-3.24,.26-34.74c.26-39.2,0-41.56-5.77-53.29-4.72-9.62-14.7-19.51-24.67-24.41-13.3-6.47-7-6.21-127.75-6.12-83.74,.09-108.94,.35-112,1.14ZM480,219.05h0c0,3.45-1.4,6.57-3.66,8.83l-52.97,52.97c-4.88,4.88-12.78,4.88-17.66,0-4.88-4.88-4.88-12.78,0-17.66l31.66-31.66h-177.95c-6.9,0-12.49-5.59-12.49-12.49h0c0-6.9,5.59-12.49,12.49-12.49h177.95l-31.66-31.66c-4.88-4.88-4.88-12.78,0-17.66h0c4.88-4.88,12.78-4.88,17.66,0l52.97,52.97c2.26,2.26,3.66,5.38,3.66,8.83Z"/></svg>