<svg xmlns="http://www.w3.org/2000/svg" viewBox="0 0 512 512"><path d="M436.5,32H75.5c-9.94,0-18,8.06-18,18h0c0,9.94,8.06,18,18,18h.02l40.79,363.24c.06,.5,.08,1.01,.09,1.52,.41,26.16,21.74,47.24,47.99,47.24h183.22c26.25,0,47.58-21.07,47.99-47.22,0-.52,.04-1.04,.1-1.56,13.9-121.09,27.8-242.18,41.7-363.27,9.52-.47,17.1-8.32,17.1-17.95h0c0-9.94-8.06-18-18-18Zm-113.12,177.6c-5.36,5.36-14.04,5.36-19.39,0l-34.77-34.77v195.46c0,7.57-6.14,13.71-13.71,13.71s-13.71-6.14-13.71-13.71V174.82l-34.77,34.77c-5.36,5.36-14.04,5.36-19.39,0h0c-5.36-5.36-5.36-14.04,0-19.39l58.18-58.18c2.48-2.48,5.91-4.02,9.7-4.02s7.21,1.53,9.7,4.02c0,0,0,0,0,0l58.18,58.18c5.36,5.36,5.36,14.04,0,19.39Z"/></svg>
