<svg xmlns="http://www.w3.org/2000/svg" viewBox="0 0 512 512"><path d="M410,83.23c-24.58-10.1-106.95-39.38-130.95-47.49-7.33-2.34-15.58-3.74-23.06-3.74s-15.68,1.59-22.87,3.74c-24.18,7.74-106.51,37.57-131.09,47.49-21.77,8.98-32,18.57-32,44.61v166.6c0,80.34,44.14,111.83,170.5,181.1,5.86,3.1,11.56,4.46,15.46,4.46s9.78-1.55,15.46-4.46c128.28-66.07,170.5-100.76,170.5-181.1V127.84c0-26.04-10.01-35.41-31.96-44.61Zm-61.24,103.83l-115.46,157.91c-5.47,7.48-15.96,9.1-23.43,3.64l-.32-.24c-2.04-1.49-3.63-3.35-4.78-5.42l-41.81-60.6c-5.26-7.62-3.35-18.07,4.28-23.33l.33-.23c7.62-5.26,18.07-3.35,23.33,4.28l29.25,42.4,101.22-138.44c5.47-7.48,15.96-9.1,23.43-3.64l.32,.24c7.47,5.47,9.1,15.95,3.64,23.43Z"/></svg>
