<svg xmlns="http://www.w3.org/2000/svg" viewBox="0 0 512 512" width="512" height="512"><path d="M375.5,468.08l-112.42-59.59c-4.85-2.57-10.64-2.59-15.51-.05l-112.83,58.83c-12.25,6.38-26.5-4.04-24.12-17.65l21.93-125.33c.95-5.4-.83-10.92-4.74-14.76L37.01,220.41c-9.86-9.67-4.34-26.45,9.33-28.39l125.98-17.87c5.43-.77,10.13-4.16,12.58-9.07l56.7-113.9c6.15-12.36,23.81-12.3,29.88,.1l55.93,114.29c2.41,4.93,7.09,8.35,12.51,9.16l125.86,18.72c13.66,2.03,19.06,18.84,9.14,28.45l-91.42,88.5c-3.94,3.81-5.75,9.32-4.84,14.73l21.08,125.48c2.29,13.62-12.03,23.95-24.23,17.48Z"/></svg>