<svg xmlns="http://www.w3.org/2000/svg" viewBox="0 0 512 512"><path d="M474.06,209.05c-4.99,5.6-10.5,8.05-18.03,8.05-8.05,0-11.47-1.84-22.67-12.08-16.8-15.23-27.22-23.11-42.97-32.64-97.58-58.9-221.51-47.61-306.14,27.74-15.05,13.39-16.89,14.7-22.23,16.28-14.62,4.29-30.02-7.53-30.02-22.93,0-7.53,2.8-12.43,12.08-21.44,22.67-22.14,46.74-38.95,76.75-53.74,38.42-18.9,75.97-28.79,118.59-31.07,85.24-4.55,168.74,26.43,228.6,84.81,6.83,6.65,8.93,9.19,10.33,12.95,3.24,8.66,1.66,17.24-4.29,24.07Zm-70.37,30.28c-31.86-30.63-72.12-50.24-117.01-57.15-12.52-1.93-41.4-2.45-54.35-.96-39.65,4.55-78.5,20.57-108.87,44.72-20.13,16.02-25.47,23.11-25.29,33.7,0,3.15,.7,7.18,1.49,8.93,2.28,5.34,8.05,10.94,13.39,12.95,10.5,3.85,18.03,1.58,29.67-8.84,33.08-29.76,70.8-44.55,113.6-44.55s79.29,14.7,111.76,43.58c9.63,8.58,15.14,11.55,21.53,11.55,13.65,0,24.24-10.5,24.24-24.07,0-7.79-2.45-12.6-10.15-19.87Zm-65.46,64.5c-14.97-14.18-35.88-24.94-57.68-29.76-9.1-2.01-34.83-2.54-44.2-.88-25.12,4.46-47.09,15.4-64.59,32.29-6.21,5.95-8.66,11.2-8.75,18.38-.09,14.27,11.64,25.21,25.64,23.89,6.13-.53,10.33-2.63,16.89-8.4,13.13-11.55,26.26-17.5,42.62-19.25,21.35-2.36,42.71,4.81,58.9,19.78,5.51,5.08,12.08,8.14,17.77,8.14,13.65,0,23.98-10.15,23.98-23.63,0-8.05-2.54-12.95-10.59-20.57Zm-68.88,61c-7.26-3.41-17.85-3.68-24.94-.7-6.39,2.71-10.41,5.78-14.18,10.85-4.11,5.6-5.86,11.38-5.86,18.82,0,9.28,2.63,15.49,9.28,22.14s12.78,9.19,21.97,9.28c7.79,0,11.9-1.23,17.94-5.25,9.63-6.48,14.35-16.02,13.83-27.74-.53-12.25-7.18-22.32-18.03-27.39Z"/></svg>