<svg viewBox="0 0 424 44" xmlns="http://www.w3.org/2000/svg"><path d="M26.5744 2.39938C26.3075 2.1355 25.9901 2 25.6294 2H1.34892C0.981031 2 0.670852 2.1355 0.403954 2.39938C0.137056 2.66325 0 2.96991 0 3.33363V19.3372C0 20.5282 0.238044 21.7192 0.70692 22.8888C1.17579 24.0655 1.76009 25.1068 2.45979 26.0125C3.15228 26.9253 3.98183 27.8097 4.94844 28.6655C5.90783 29.5284 6.8023 30.2416 7.61742 30.8121C8.43254 31.3827 9.28373 31.9175 10.171 32.4239C11.0582 32.9302 11.6858 33.2726 12.0609 33.458C12.436 33.6363 12.7318 33.7789 12.9554 33.8716C13.1213 33.9572 13.3088 34 13.5036 34C13.6984 34 13.8859 33.9572 14.0518 33.8716C14.2754 33.7718 14.5784 33.6363 14.9463 33.458C15.3214 33.2797 15.949 32.9302 16.8362 32.4239C17.7235 31.9175 18.5747 31.3755 19.3898 30.8121C20.2049 30.2416 21.0922 29.5284 22.0588 28.6655C23.0182 27.8025 23.8477 26.9182 24.5474 26.0125C25.2399 25.0996 25.8242 24.0584 26.2931 22.8888C26.762 21.7121 27 20.5282 27 19.3372V3.33363C26.9784 2.96991 26.8413 2.66325 26.5744 2.39938ZM23.4438 19.487C23.4438 25.2779 13.4892 30.2701 13.4892 30.2701V5.42322H23.4438C23.4438 5.42322 23.4438 13.696 23.4438 19.487Z"/><path d="M416.709 15.4111V34H410.381V10.2256H416.335L416.709 15.4111ZM423.872 10.0718L423.762 15.9385C423.455 15.8945 423.081 15.8579 422.642 15.8286C422.217 15.7847 421.829 15.7627 421.477 15.7627C420.583 15.7627 419.807 15.8799 419.148 16.1143C418.503 16.334 417.961 16.6636 417.522 17.103C417.097 17.5425 416.775 18.0771 416.555 18.707C416.35 19.3369 416.233 20.0547 416.204 20.8604L414.929 20.4648C414.929 18.9268 415.083 17.5132 415.391 16.2241C415.698 14.9204 416.145 13.7852 416.731 12.8184C417.332 11.8516 418.064 11.1045 418.928 10.5771C419.792 10.0498 420.781 9.78613 421.895 9.78613C422.246 9.78613 422.605 9.81543 422.971 9.87402C423.337 9.91797 423.638 9.98389 423.872 10.0718Z"/><path d="M397.021 34.4395C395.176 34.4395 393.521 34.1465 392.056 33.5605C390.591 32.96 389.346 32.1323 388.32 31.0776C387.31 30.0229 386.533 28.7998 385.991 27.4082C385.449 26.002 385.178 24.5078 385.178 22.9258V22.0469C385.178 20.2451 385.435 18.5972 385.947 17.103C386.46 15.6089 387.192 14.3125 388.145 13.2139C389.111 12.1152 390.283 11.2729 391.66 10.687C393.037 10.0864 394.59 9.78613 396.318 9.78613C398.003 9.78613 399.497 10.0645 400.801 10.6211C402.104 11.1777 403.196 11.9688 404.075 12.9941C404.968 14.0195 405.642 15.25 406.096 16.6855C406.55 18.1064 406.777 19.6885 406.777 21.4316V24.0684H387.881V19.8496H400.559V19.3662C400.559 18.4873 400.398 17.7036 400.076 17.0151C399.768 16.312 399.299 15.7554 398.669 15.3452C398.04 14.9351 397.234 14.73 396.252 14.73C395.417 14.73 394.7 14.9131 394.099 15.2793C393.499 15.6455 393.008 16.1582 392.627 16.8174C392.261 17.4766 391.982 18.2529 391.792 19.1465C391.616 20.0254 391.528 20.9922 391.528 22.0469V22.9258C391.528 23.8779 391.66 24.7568 391.924 25.5625C392.202 26.3682 392.59 27.064 393.088 27.6499C393.601 28.2358 394.216 28.6899 394.934 29.0122C395.667 29.3345 396.494 29.4956 397.417 29.4956C398.56 29.4956 399.622 29.2759 400.603 28.8364C401.599 28.3823 402.456 27.7012 403.174 26.793L406.25 30.1328C405.752 30.8506 405.071 31.5391 404.207 32.1982C403.357 32.8574 402.332 33.3994 401.13 33.8242C399.929 34.2344 398.56 34.4395 397.021 34.4395Z"/><path d="M375.422 10.2256H381.157V33.209C381.157 35.377 380.674 37.2153 379.707 38.7241C378.755 40.2476 377.422 41.3975 375.708 42.1738C373.994 42.9648 372.002 43.3604 369.731 43.3604C368.735 43.3604 367.681 43.2285 366.567 42.9648C365.469 42.7012 364.414 42.291 363.403 41.7344C362.407 41.1777 361.572 40.4746 360.898 39.625L363.689 35.8896C364.421 36.7393 365.271 37.3984 366.238 37.8672C367.205 38.3506 368.274 38.5923 369.446 38.5923C370.588 38.5923 371.555 38.3799 372.346 37.9551C373.137 37.5449 373.745 36.937 374.17 36.1313C374.595 35.3403 374.807 34.3809 374.807 33.2529V15.7188L375.422 10.2256ZM359.426 22.3984V21.937C359.426 20.1206 359.646 18.4727 360.085 16.9932C360.54 15.499 361.177 14.2173 361.997 13.1479C362.832 12.0786 363.843 11.251 365.029 10.665C366.216 10.0791 367.556 9.78613 369.05 9.78613C370.632 9.78613 371.958 10.0791 373.027 10.665C374.097 11.251 374.976 12.0859 375.664 13.1699C376.353 14.2393 376.887 15.5063 377.268 16.9712C377.664 18.4214 377.971 20.0107 378.191 21.7393V22.75C377.971 24.4053 377.642 25.9434 377.202 27.3643C376.763 28.7852 376.184 30.0303 375.466 31.0996C374.749 32.1543 373.855 32.9746 372.786 33.5605C371.731 34.1465 370.471 34.4395 369.006 34.4395C367.542 34.4395 366.216 34.1392 365.029 33.5386C363.857 32.938 362.854 32.0957 362.019 31.0117C361.184 29.9277 360.54 28.6533 360.085 27.1885C359.646 25.7236 359.426 24.127 359.426 22.3984ZM365.754 21.937V22.3984C365.754 23.3799 365.85 24.2954 366.04 25.145C366.23 25.9946 366.523 26.749 366.919 27.4082C367.329 28.0527 367.834 28.5581 368.435 28.9243C369.05 29.2759 369.775 29.4517 370.61 29.4517C371.768 29.4517 372.712 29.21 373.445 28.7266C374.177 28.2285 374.727 27.5474 375.093 26.6831C375.459 25.8188 375.671 24.8228 375.73 23.6948V20.8164C375.701 19.8936 375.576 19.0659 375.356 18.3335C375.137 17.5864 374.829 16.9492 374.434 16.4219C374.038 15.8945 373.525 15.4844 372.896 15.1914C372.266 14.8984 371.519 14.752 370.654 14.752C369.819 14.752 369.094 14.9424 368.479 15.3232C367.878 15.6895 367.373 16.1948 366.963 16.8394C366.567 17.4839 366.267 18.2456 366.062 19.1245C365.857 19.9888 365.754 20.9263 365.754 21.937Z"/><path d="M349.121 28.6387V18.0479C349.121 17.2861 348.997 16.6343 348.748 16.0923C348.499 15.5356 348.11 15.1035 347.583 14.7959C347.07 14.4883 346.404 14.3345 345.583 14.3345C344.88 14.3345 344.272 14.459 343.76 14.708C343.247 14.9424 342.852 15.2866 342.573 15.7407C342.295 16.1802 342.156 16.7002 342.156 17.3008H335.828C335.828 16.29 336.062 15.3306 336.531 14.4224C337 13.5142 337.681 12.7158 338.574 12.0273C339.468 11.3242 340.53 10.7749 341.76 10.3794C343.005 9.98389 344.397 9.78613 345.935 9.78613C347.781 9.78613 349.421 10.0938 350.857 10.709C352.292 11.3242 353.42 12.2471 354.241 13.4775C355.076 14.708 355.493 16.2461 355.493 18.0918V28.2651C355.493 29.5688 355.574 30.6382 355.735 31.4731C355.896 32.2935 356.13 33.0112 356.438 33.6265V34H350.044C349.736 33.3555 349.502 32.5498 349.341 31.583C349.194 30.6016 349.121 29.6201 349.121 28.6387ZM349.956 19.52L350 23.1016H346.462C345.627 23.1016 344.902 23.1968 344.287 23.3872C343.672 23.5776 343.167 23.8486 342.771 24.2002C342.375 24.5371 342.083 24.9326 341.892 25.3867C341.716 25.8408 341.628 26.3389 341.628 26.8809C341.628 27.4229 341.753 27.9136 342.002 28.353C342.251 28.7778 342.61 29.1147 343.079 29.3638C343.547 29.5981 344.097 29.7153 344.727 29.7153C345.679 29.7153 346.506 29.5249 347.209 29.144C347.913 28.7632 348.455 28.2944 348.835 27.7378C349.231 27.1812 349.436 26.6538 349.451 26.1558L351.121 28.8364C350.886 29.437 350.564 30.0596 350.154 30.7041C349.758 31.3486 349.253 31.9565 348.638 32.5278C348.022 33.0845 347.283 33.5459 346.418 33.9121C345.554 34.2637 344.529 34.4395 343.342 34.4395C341.833 34.4395 340.464 34.1392 339.233 33.5386C338.018 32.9233 337.051 32.0811 336.333 31.0117C335.63 29.9277 335.278 28.6973 335.278 27.3203C335.278 26.0752 335.513 24.9692 335.981 24.0024C336.45 23.0356 337.139 22.2227 338.047 21.5635C338.97 20.8896 340.12 20.3843 341.497 20.0474C342.874 19.6958 344.47 19.52 346.287 19.52H349.956Z"/><path d="M317.261 15.3013V34H310.933V10.2256H316.865L317.261 15.3013ZM316.338 21.2778H314.624C314.624 19.52 314.851 17.938 315.305 16.5317C315.759 15.1108 316.396 13.9023 317.217 12.9062C318.037 11.8955 319.011 11.1265 320.139 10.5991C321.282 10.0571 322.556 9.78613 323.962 9.78613C325.076 9.78613 326.094 9.94727 327.017 10.2695C327.939 10.5918 328.73 11.1045 329.39 11.8076C330.063 12.5107 330.576 13.4409 330.928 14.5981C331.294 15.7554 331.477 17.1689 331.477 18.8389V34H325.105V18.8169C325.105 17.7622 324.958 16.9419 324.666 16.356C324.373 15.77 323.94 15.3599 323.369 15.1255C322.812 14.8765 322.124 14.752 321.304 14.752C320.454 14.752 319.714 14.9204 319.084 15.2573C318.469 15.5942 317.957 16.063 317.546 16.6636C317.151 17.2495 316.851 17.938 316.646 18.729C316.44 19.52 316.338 20.3696 316.338 21.2778Z"/><path d="M299.814 28.6387V18.0479C299.814 17.2861 299.69 16.6343 299.441 16.0923C299.192 15.5356 298.804 15.1035 298.276 14.7959C297.764 14.4883 297.097 14.3345 296.277 14.3345C295.574 14.3345 294.966 14.459 294.453 14.708C293.94 14.9424 293.545 15.2866 293.267 15.7407C292.988 16.1802 292.849 16.7002 292.849 17.3008H286.521C286.521 16.29 286.755 15.3306 287.224 14.4224C287.693 13.5142 288.374 12.7158 289.268 12.0273C290.161 11.3242 291.223 10.7749 292.454 10.3794C293.699 9.98389 295.09 9.78613 296.628 9.78613C298.474 9.78613 300.115 10.0938 301.55 10.709C302.986 11.3242 304.114 12.2471 304.934 13.4775C305.769 14.708 306.187 16.2461 306.187 18.0918V28.2651C306.187 29.5688 306.267 30.6382 306.428 31.4731C306.589 32.2935 306.824 33.0112 307.131 33.6265V34H300.737C300.43 33.3555 300.195 32.5498 300.034 31.583C299.888 30.6016 299.814 29.6201 299.814 28.6387ZM300.649 19.52L300.693 23.1016H297.156C296.321 23.1016 295.596 23.1968 294.98 23.3872C294.365 23.5776 293.86 23.8486 293.464 24.2002C293.069 24.5371 292.776 24.9326 292.585 25.3867C292.41 25.8408 292.322 26.3389 292.322 26.8809C292.322 27.4229 292.446 27.9136 292.695 28.353C292.944 28.7778 293.303 29.1147 293.772 29.3638C294.241 29.5981 294.79 29.7153 295.42 29.7153C296.372 29.7153 297.2 29.5249 297.903 29.144C298.606 28.7632 299.148 28.2944 299.529 27.7378C299.924 27.1812 300.129 26.6538 300.144 26.1558L301.814 28.8364C301.58 29.437 301.257 30.0596 300.847 30.7041C300.452 31.3486 299.946 31.9565 299.331 32.5278C298.716 33.0845 297.976 33.5459 297.112 33.9121C296.248 34.2637 295.222 34.4395 294.036 34.4395C292.527 34.4395 291.157 34.1392 289.927 33.5386C288.711 32.9233 287.744 32.0811 287.026 31.0117C286.323 29.9277 285.972 28.6973 285.972 27.3203C285.972 26.0752 286.206 24.9692 286.675 24.0024C287.144 23.0356 287.832 22.2227 288.74 21.5635C289.663 20.8896 290.813 20.3843 292.19 20.0474C293.567 19.6958 295.164 19.52 296.98 19.52H300.649Z"/><path d="M250.969 2.00781H256.55L264.768 25.4966L272.986 2.00781H278.567L267.009 34H262.527L250.969 2.00781ZM247.959 2.00781H253.518L254.529 24.9033V34H247.959V2.00781ZM276.018 2.00781H281.599V34H275.007V24.9033L276.018 2.00781Z"/><path d="M225.042 28.8145V0.25H231.414V34H225.679L225.042 28.8145ZM210.012 22.3984V21.937C210.012 20.1206 210.217 18.4727 210.627 16.9932C211.038 15.499 211.638 14.2173 212.429 13.1479C213.22 12.0786 214.194 11.251 215.352 10.665C216.509 10.0791 217.827 9.78613 219.307 9.78613C220.698 9.78613 221.914 10.0791 222.954 10.665C224.009 11.251 224.902 12.0859 225.635 13.1699C226.382 14.2393 226.982 15.5063 227.437 16.9712C227.891 18.4214 228.22 20.0107 228.425 21.7393V22.75C228.22 24.4053 227.891 25.9434 227.437 27.3643C226.982 28.7852 226.382 30.0303 225.635 31.0996C224.902 32.1543 224.009 32.9746 222.954 33.5605C221.899 34.1465 220.669 34.4395 219.263 34.4395C217.783 34.4395 216.465 34.1392 215.308 33.5386C214.165 32.938 213.198 32.0957 212.407 31.0117C211.631 29.9277 211.038 28.6533 210.627 27.1885C210.217 25.7236 210.012 24.127 210.012 22.3984ZM216.34 21.937V22.3984C216.34 23.3799 216.414 24.2954 216.56 25.145C216.721 25.9946 216.978 26.749 217.329 27.4082C217.695 28.0527 218.164 28.5581 218.735 28.9243C219.321 29.2759 220.032 29.4517 220.867 29.4517C221.951 29.4517 222.844 29.21 223.547 28.7266C224.25 28.2285 224.785 27.5474 225.151 26.6831C225.532 25.8188 225.752 24.8228 225.811 23.6948V20.8164C225.767 19.8936 225.635 19.0659 225.415 18.3335C225.21 17.5864 224.902 16.9492 224.492 16.4219C224.097 15.8945 223.599 15.4844 222.998 15.1914C222.412 14.8984 221.716 14.752 220.911 14.752C220.09 14.752 219.387 14.9424 218.801 15.3232C218.215 15.6895 217.739 16.1948 217.373 16.8394C217.021 17.4839 216.758 18.2456 216.582 19.1245C216.421 19.9888 216.34 20.9263 216.34 21.937Z"/><path d="M201.289 15.4111V34H194.961V10.2256H200.916L201.289 15.4111ZM208.452 10.0718L208.342 15.9385C208.035 15.8945 207.661 15.8579 207.222 15.8286C206.797 15.7847 206.409 15.7627 206.057 15.7627C205.164 15.7627 204.387 15.8799 203.728 16.1143C203.083 16.334 202.542 16.6636 202.102 17.103C201.677 17.5425 201.355 18.0771 201.135 18.707C200.93 19.3369 200.813 20.0547 200.784 20.8604L199.509 20.4648C199.509 18.9268 199.663 17.5132 199.971 16.2241C200.278 14.9204 200.725 13.7852 201.311 12.8184C201.912 11.8516 202.644 11.1045 203.508 10.5771C204.373 10.0498 205.361 9.78613 206.475 9.78613C206.826 9.78613 207.185 9.81543 207.551 9.87402C207.917 9.91797 208.218 9.98389 208.452 10.0718Z"/><path d="M168.55 22.3545V21.8931C168.55 20.1499 168.799 18.5459 169.297 17.0811C169.795 15.6016 170.52 14.3198 171.472 13.2358C172.424 12.1519 173.596 11.3096 174.988 10.709C176.379 10.0938 177.976 9.78613 179.778 9.78613C181.58 9.78613 183.184 10.0938 184.59 10.709C185.996 11.3096 187.175 12.1519 188.127 13.2358C189.094 14.3198 189.827 15.6016 190.325 17.0811C190.823 18.5459 191.072 20.1499 191.072 21.8931V22.3545C191.072 24.083 190.823 25.687 190.325 27.1665C189.827 28.6313 189.094 29.9131 188.127 31.0117C187.175 32.0957 186.003 32.938 184.612 33.5386C183.22 34.1392 181.624 34.4395 179.822 34.4395C178.02 34.4395 176.416 34.1392 175.01 33.5386C173.618 32.938 172.439 32.0957 171.472 31.0117C170.52 29.9131 169.795 28.6313 169.297 27.1665C168.799 25.687 168.55 24.083 168.55 22.3545ZM174.878 21.8931V22.3545C174.878 23.3506 174.966 24.2808 175.142 25.145C175.317 26.0093 175.596 26.771 175.977 27.4302C176.372 28.0747 176.885 28.5801 177.515 28.9463C178.145 29.3125 178.914 29.4956 179.822 29.4956C180.701 29.4956 181.455 29.3125 182.085 28.9463C182.715 28.5801 183.22 28.0747 183.601 27.4302C183.982 26.771 184.26 26.0093 184.436 25.145C184.626 24.2808 184.722 23.3506 184.722 22.3545V21.8931C184.722 20.9263 184.626 20.0181 184.436 19.1685C184.26 18.3042 183.975 17.5425 183.579 16.8833C183.198 16.2095 182.693 15.6821 182.063 15.3013C181.433 14.9204 180.671 14.73 179.778 14.73C178.884 14.73 178.123 14.9204 177.493 15.3013C176.877 15.6821 176.372 16.2095 175.977 16.8833C175.596 17.5425 175.317 18.3042 175.142 19.1685C174.966 20.0181 174.878 20.9263 174.878 21.8931Z"/><path d="M143.303 27.8477L148.247 10.2256H152.268L150.972 17.147L146.028 34H142.666L143.303 27.8477ZM140.798 10.2256L144.336 27.8257L144.666 34H140.71L134.69 10.2256H140.798ZM156.794 27.54L160.244 10.2256H166.375L160.354 34H156.421L156.794 27.54ZM152.817 10.2256L157.739 27.7158L158.42 34H155.037L150.093 17.1689L148.84 10.2256H152.817Z"/><path d="M126.252 27.4302C126.252 26.9761 126.121 26.5659 125.857 26.1997C125.593 25.8335 125.103 25.4966 124.385 25.189C123.682 24.8667 122.664 24.5737 121.331 24.3101C120.129 24.0464 119.009 23.7168 117.969 23.3213C116.943 22.9111 116.05 22.4204 115.288 21.8491C114.541 21.2778 113.955 20.604 113.53 19.8276C113.105 19.0366 112.893 18.1357 112.893 17.125C112.893 16.1289 113.105 15.1914 113.53 14.3125C113.97 13.4336 114.592 12.6572 115.398 11.9834C116.218 11.2949 117.214 10.7603 118.386 10.3794C119.573 9.98389 120.906 9.78613 122.385 9.78613C124.451 9.78613 126.223 10.1157 127.703 10.7749C129.197 11.4341 130.339 12.3423 131.13 13.4995C131.936 14.6421 132.339 15.9458 132.339 17.4106H126.011C126.011 16.7954 125.879 16.2461 125.615 15.7627C125.366 15.2646 124.971 14.8765 124.429 14.5981C123.901 14.3052 123.213 14.1587 122.363 14.1587C121.66 14.1587 121.052 14.2832 120.54 14.5322C120.027 14.7666 119.631 15.0889 119.353 15.499C119.089 15.8945 118.958 16.334 118.958 16.8174C118.958 17.1836 119.031 17.5132 119.177 17.8062C119.338 18.0845 119.595 18.3408 119.946 18.5752C120.298 18.8096 120.752 19.0293 121.309 19.2344C121.88 19.4248 122.583 19.6006 123.418 19.7617C125.132 20.1133 126.663 20.5747 128.01 21.146C129.358 21.7026 130.427 22.4644 131.218 23.4312C132.009 24.3833 132.405 25.6357 132.405 27.1885C132.405 28.2432 132.17 29.21 131.702 30.0889C131.233 30.9678 130.559 31.7368 129.68 32.396C128.801 33.0405 127.747 33.5459 126.516 33.9121C125.3 34.2637 123.931 34.4395 122.407 34.4395C120.195 34.4395 118.32 34.0439 116.782 33.2529C115.259 32.4619 114.102 31.4585 113.311 30.2427C112.534 29.0122 112.146 27.7524 112.146 26.4634H118.145C118.174 27.3276 118.394 28.0234 118.804 28.5508C119.229 29.0781 119.763 29.459 120.408 29.6934C121.067 29.9277 121.777 30.0449 122.539 30.0449C123.359 30.0449 124.041 29.9351 124.583 29.7153C125.125 29.481 125.535 29.1733 125.813 28.7925C126.106 28.397 126.252 27.9429 126.252 27.4302Z"/><path d="M103.137 27.4302C103.137 26.9761 103.005 26.5659 102.742 26.1997C102.478 25.8335 101.987 25.4966 101.27 25.189C100.566 24.8667 99.5483 24.5737 98.2153 24.3101C97.0142 24.0464 95.8936 23.7168 94.8535 23.3213C93.8281 22.9111 92.9346 22.4204 92.1729 21.8491C91.4258 21.2778 90.8398 20.604 90.415 19.8276C89.9902 19.0366 89.7778 18.1357 89.7778 17.125C89.7778 16.1289 89.9902 15.1914 90.415 14.3125C90.8545 13.4336 91.4771 12.6572 92.2827 11.9834C93.103 11.2949 94.0991 10.7603 95.271 10.3794C96.4575 9.98389 97.7905 9.78613 99.27 9.78613C101.335 9.78613 103.108 10.1157 104.587 10.7749C106.082 11.4341 107.224 12.3423 108.015 13.4995C108.821 14.6421 109.224 15.9458 109.224 17.4106H102.896C102.896 16.7954 102.764 16.2461 102.5 15.7627C102.251 15.2646 101.855 14.8765 101.313 14.5981C100.786 14.3052 100.098 14.1587 99.248 14.1587C98.5449 14.1587 97.937 14.2832 97.4243 14.5322C96.9116 14.7666 96.5161 15.0889 96.2378 15.499C95.9741 15.8945 95.8423 16.334 95.8423 16.8174C95.8423 17.1836 95.9155 17.5132 96.062 17.8062C96.2231 18.0845 96.4795 18.3408 96.8311 18.5752C97.1826 18.8096 97.6367 19.0293 98.1934 19.2344C98.7646 19.4248 99.4678 19.6006 100.303 19.7617C102.017 20.1133 103.547 20.5747 104.895 21.146C106.243 21.7026 107.312 22.4644 108.103 23.4312C108.894 24.3833 109.29 25.6357 109.29 27.1885C109.29 28.2432 109.055 29.21 108.586 30.0889C108.118 30.9678 107.444 31.7368 106.565 32.396C105.686 33.0405 104.631 33.5459 103.401 33.9121C102.185 34.2637 100.815 34.4395 99.292 34.4395C97.0801 34.4395 95.2051 34.0439 93.667 33.2529C92.1436 32.4619 90.9863 31.4585 90.1953 30.2427C89.4189 29.0122 89.0308 27.7524 89.0308 26.4634H95.0293C95.0586 27.3276 95.2783 28.0234 95.6885 28.5508C96.1133 29.0781 96.6479 29.459 97.2925 29.6934C97.9517 29.9277 98.6621 30.0449 99.4238 30.0449C100.244 30.0449 100.925 29.9351 101.467 29.7153C102.009 29.481 102.419 29.1733 102.698 28.7925C102.991 28.397 103.137 27.9429 103.137 27.4302Z"/><path d="M79.0332 28.6387V18.0479C79.0332 17.2861 78.9087 16.6343 78.6597 16.0923C78.4106 15.5356 78.0225 15.1035 77.4951 14.7959C76.9824 14.4883 76.3159 14.3345 75.4956 14.3345C74.7925 14.3345 74.1846 14.459 73.6719 14.708C73.1592 14.9424 72.7637 15.2866 72.4854 15.7407C72.207 16.1802 72.0679 16.7002 72.0679 17.3008H65.7397C65.7397 16.29 65.9741 15.3306 66.4429 14.4224C66.9116 13.5142 67.5928 12.7158 68.4863 12.0273C69.3799 11.3242 70.4419 10.7749 71.6724 10.3794C72.9175 9.98389 74.3091 9.78613 75.8472 9.78613C77.6929 9.78613 79.3335 10.0938 80.769 10.709C82.2046 11.3242 83.3325 12.2471 84.1528 13.4775C84.9878 14.708 85.4053 16.2461 85.4053 18.0918V28.2651C85.4053 29.5688 85.4858 30.6382 85.647 31.4731C85.8081 32.2935 86.0425 33.0112 86.3501 33.6265V34H79.9561C79.6484 33.3555 79.4141 32.5498 79.2529 31.583C79.1064 30.6016 79.0332 29.6201 79.0332 28.6387ZM79.8682 19.52L79.9121 23.1016H76.3745C75.5396 23.1016 74.8145 23.1968 74.1992 23.3872C73.584 23.5776 73.0786 23.8486 72.6831 24.2002C72.2876 24.5371 71.9946 24.9326 71.8042 25.3867C71.6284 25.8408 71.5405 26.3389 71.5405 26.8809C71.5405 27.4229 71.665 27.9136 71.9141 28.353C72.1631 28.7778 72.522 29.1147 72.9907 29.3638C73.4595 29.5981 74.0088 29.7153 74.6387 29.7153C75.5908 29.7153 76.4185 29.5249 77.1216 29.144C77.8247 28.7632 78.3667 28.2944 78.7476 27.7378C79.1431 27.1812 79.3481 26.6538 79.3628 26.1558L81.0327 28.8364C80.7983 29.437 80.4761 30.0596 80.0659 30.7041C79.6704 31.3486 79.165 31.9565 78.5498 32.5278C77.9346 33.0845 77.1948 33.5459 76.3306 33.9121C75.4663 34.2637 74.4409 34.4395 73.2544 34.4395C71.7456 34.4395 70.376 34.1392 69.1455 33.5386C67.9297 32.9233 66.9629 32.0811 66.2451 31.0117C65.542 29.9277 65.1904 28.6973 65.1904 27.3203C65.1904 26.0752 65.4248 24.9692 65.8936 24.0024C66.3623 23.0356 67.0508 22.2227 67.959 21.5635C68.8818 20.8896 70.0317 20.3843 71.4087 20.0474C72.7856 19.6958 74.3823 19.52 76.1987 19.52H79.8682Z"/><path d="M50.3149 22.5962H42.1631V17.4546H50.3149C51.5747 17.4546 52.6001 17.2495 53.3911 16.8394C54.1821 16.4146 54.7607 15.8286 55.127 15.0815C55.4932 14.3345 55.6763 13.4922 55.6763 12.5547C55.6763 11.6025 55.4932 10.7163 55.127 9.896C54.7607 9.07568 54.1821 8.4165 53.3911 7.91846C52.6001 7.42041 51.5747 7.17139 50.3149 7.17139H44.4482V34H37.8564V2.00781H50.3149C52.8198 2.00781 54.9658 2.46191 56.7529 3.37012C58.5547 4.26367 59.9316 5.50146 60.8838 7.0835C61.8359 8.66553 62.312 10.4746 62.312 12.5107C62.312 14.5762 61.8359 16.3633 60.8838 17.8721C59.9316 19.3809 58.5547 20.5454 56.7529 21.3657C54.9658 22.186 52.8198 22.5962 50.3149 22.5962Z"/></svg>
